<svg width="523" height="430" viewBox="0 0 523 430" fill="none" xmlns="http://www.w3.org/2000/svg">
<path d="M439.777 369.286L41.5178 429.614C32.5629 431.028 24.5506 424.43 23.8436 415.475L0.0423204 56.8058C-0.664649 46.9083 7.58334 38.6603 17.4809 39.3673L416.447 64.8182C423.988 65.2895 430.115 71.1809 430.822 78.7219L453.681 351.848C454.388 360.096 448.261 367.872 439.777 369.286Z" fill="#63737A"/>
<path d="M450.898 368.61L50.7534 429.173C41.7985 430.587 33.7862 423.989 33.0792 415.034L9.04231 54.7155C8.33534 44.8179 16.5833 36.3343 26.7165 37.0412L427.332 62.4921C434.873 62.9634 441 68.8548 441.707 76.6315L464.802 350.935C465.744 359.655 459.617 367.431 450.898 368.61Z" fill="#EDEDED"/>
<g filter="url(#filter0_d_315_196)">
<path d="M432.441 356.566L73.4583 411.826C65.4246 413.116 58.2365 407.095 57.6023 398.925L36.038 70.1639C35.4037 61.1332 42.8032 53.3926 51.8941 54.0376L411.299 77.2594C418.065 77.6894 423.561 83.0649 424.196 90.1604L444.914 340.44C445.76 348.396 440.263 355.491 432.441 356.566Z" fill="#FFFEFE"/>
</g>
<path d="M192.837 353.277L81.0588 369.612C77.554 370.215 74.3132 364.447 73.8415 357.123L60.8868 159.855C60.3994 152.041 63.2294 145.099 66.9847 144.978L179.221 142.818C182.742 142.705 185.732 147.99 186.204 155.315L198.7 338.408C199.188 346.221 196.577 352.667 192.837 353.277Z" fill="#6A96C2"/>
<path d="M412.864 329.451L228.702 347.089C222.926 347.725 217.733 342.499 217.129 335.777L200.456 154.733C199.838 147.562 204.654 141.114 210.831 140.914L395.414 136.296C401.205 136.109 405.997 140.898 406.601 147.621L422.853 315.644C423.471 322.815 419.027 328.802 412.864 329.451Z" fill="#EBF2F8"/>
<path d="M144.264 103.702L64.848 101.345C62.2558 101.345 60.1349 99.224 59.8992 96.6318L58.9566 84.142C58.721 81.0785 61.3132 78.4863 64.1411 78.7219L143.557 82.0211C146.149 82.0211 148.27 84.1421 148.506 86.7343L149.449 98.2814C149.684 101.109 147.328 103.702 144.264 103.702Z" fill="#6DAFA7"/>
<path d="M415.269 102.523C415.033 98.9881 412.441 95.9246 409.377 95.6889C406.55 95.4532 404.193 98.5168 404.664 102.052C404.9 105.822 407.492 108.886 410.556 108.886C413.384 109.121 415.504 106.058 415.269 102.523Z" fill="#63737A"/>
<path d="M394.295 101.816C394.06 98.0456 391.232 94.9821 388.404 94.9821C385.341 94.7464 383.22 97.81 383.455 101.58C383.691 105.351 386.519 108.415 389.582 108.415C392.41 108.415 394.531 105.351 394.295 101.816Z" fill="#63737A"/>
<path d="M372.615 100.873C372.379 97.1029 369.551 94.0394 366.488 93.8038C363.424 93.5681 361.068 96.6316 361.303 100.402C361.539 104.173 364.367 107.236 367.43 107.472C370.73 107.707 372.85 104.644 372.615 100.873Z" fill="#63737A"/>
<path d="M510.945 133.394L406.313 131.509C402.071 131.509 398.537 128.21 398.301 123.968L388.875 8.73213C388.639 4.72597 391.938 1.66245 395.709 1.89811L500.812 12.9739C504.818 13.4453 507.881 16.5088 508.117 20.5149L517.307 126.325C517.543 130.331 514.715 133.394 510.945 133.394Z" fill="#6A96C2"/>
<path d="M516.6 131.509L411.969 129.624C407.727 129.624 404.192 126.325 403.957 122.083L394.53 6.84675C394.295 2.84059 397.594 -0.222922 401.364 0.012734L506.467 11.0886C510.473 11.5599 513.537 14.6234 513.772 18.6296L522.963 124.439C523.199 128.445 520.135 131.509 516.6 131.509Z" fill="#EBF2F8"/>
<path d="M440.248 21.4573L495.627 26.6417" stroke="#63737A" stroke-width="1.8" stroke-miterlimit="10" stroke-linecap="round" stroke-linejoin="round"/>
<path d="M441.191 32.7689L496.57 37.482" stroke="#63737A" stroke-width="1.8" stroke-miterlimit="10" stroke-linecap="round" stroke-linejoin="round"/>
<path d="M443.311 58.6912L498.926 62.4617" stroke="#63737A" stroke-width="1.8" stroke-miterlimit="10" stroke-linecap="round" stroke-linejoin="round"/>
<path d="M444.254 69.7668L499.633 73.0661" stroke="#63737A" stroke-width="1.8" stroke-miterlimit="10" stroke-linecap="round" stroke-linejoin="round"/>
<path d="M446.611 95.9247L501.991 98.2812" stroke="#63737A" stroke-width="1.8" stroke-miterlimit="10" stroke-linecap="round" stroke-linejoin="round"/>
<path d="M447.554 107L502.933 108.886" stroke="#63737A" stroke-width="1.8" stroke-miterlimit="10" stroke-linecap="round" stroke-linejoin="round"/>
<path d="M421.16 27.8201L423.988 31.3549L427.994 25.9348" stroke="#6DAFA7" stroke-width="1.8" stroke-miterlimit="10" stroke-linecap="round" stroke-linejoin="round"/>
<path d="M424.223 65.5252L427.051 68.8244L431.292 63.4043" stroke="#6DAFA7" stroke-width="1.8" stroke-miterlimit="10" stroke-linecap="round" stroke-linejoin="round"/>
<path d="M427.287 102.523L430.35 105.822L434.357 100.167" stroke="#6DAFA7" stroke-width="1.8" stroke-miterlimit="10" stroke-linecap="round" stroke-linejoin="round"/>
<path d="M387.932 137.071L325.811 138.601L330.834 203.54L393.615 198.085L387.932 137.071Z" fill="#BADDBF"/>
<path d="M296.284 309L234 314.413L236.553 347.421L298.837 342.009L296.284 309Z" fill="#BADDBF"/>
<path d="M216 143.106L231.856 348.088M319.157 135.687L322.304 176.376M322.304 176.376L324.858 209.389M322.304 176.376L259.219 181.859M324.858 209.389L290.214 254.136M324.858 209.389L419.037 297.931M324.858 209.389L393.549 203.42M259.219 181.859L290.214 254.136M259.219 181.859L219.266 185.331M259.219 181.859L256.072 141.169M290.214 254.136L294.015 303.27M393.549 203.42L415.278 201.531M393.549 203.42L388.108 133.794M294.015 303.27L297.334 344.492M294.015 303.27L228.827 308.935" stroke="white" stroke-width="11.4333"/>
<path fill-rule="evenodd" clip-rule="evenodd" d="M335.903 289.61C335.903 289.61 344.244 277.692 343.828 272.306C343.411 266.92 338.953 262.912 333.872 263.353C328.79 263.795 325.009 268.519 325.425 273.905C325.842 279.292 335.903 289.61 335.903 289.61ZM334.915 276.857C336.87 276.687 338.324 274.87 338.164 272.798C338.004 270.726 336.29 269.185 334.335 269.355C332.381 269.525 330.926 271.341 331.086 273.413C331.246 275.485 332.962 277.027 334.915 276.857Z" fill="#6A96C2"/>
<path d="M173.822 158.858L76.7192 161.999C75.0433 162.053 73.7412 163.388 73.8108 164.981C73.8805 166.574 75.2955 167.822 76.9714 167.768L174.074 164.627C175.75 164.573 177.052 163.237 176.982 161.644C176.913 160.051 175.498 158.804 173.822 158.858Z" fill="#99BFE6"/>
<path d="M174.41 172.319L77.3077 175.459C75.6318 175.513 74.3296 176.849 74.3993 178.442C74.4689 180.035 75.884 181.282 77.5598 181.228L174.663 178.087C176.338 178.033 177.641 176.698 177.571 175.105C177.501 173.512 176.086 172.264 174.41 172.319Z" fill="#99BFE6"/>
<path d="M174.999 185.779L77.8961 188.92C76.2202 188.974 74.9181 190.309 74.9877 191.902C75.0574 193.495 76.4724 194.743 78.1483 194.689L175.251 191.548C176.927 191.494 178.229 190.159 178.159 188.566C178.09 186.973 176.675 185.725 174.999 185.779Z" fill="#99BFE6"/>
<path d="M175.587 199.24L78.4845 202.38C76.8087 202.434 75.5065 203.77 75.5762 205.363C75.6458 206.956 77.0609 208.203 78.7367 208.149L175.839 205.008C177.515 204.954 178.817 203.619 178.748 202.026C178.678 200.433 177.263 199.185 175.587 199.24Z" fill="#99BFE6"/>
<path d="M176.176 212.7L79.073 215.841C77.3971 215.895 76.095 217.23 76.1646 218.823C76.2343 220.416 77.6493 221.664 79.3252 221.61L176.428 218.469C178.104 218.415 179.406 217.079 179.336 215.486C179.267 213.893 177.852 212.646 176.176 212.7Z" fill="#99BFE6"/>
<path d="M128.213 227.731L79.6615 229.301C77.9856 229.355 76.6835 230.691 76.7531 232.284C76.8228 233.877 78.2378 235.124 79.9137 235.07L128.465 233.5C130.141 233.445 131.443 232.11 131.373 230.517C131.304 228.924 129.889 227.677 128.213 227.731Z" fill="#99BFE6"/>
<defs>
<filter id="filter0_d_315_196" x="23" y="44" width="435" height="384" filterUnits="userSpaceOnUse" color-interpolation-filters="sRGB">
<feFlood flood-opacity="0" result="BackgroundImageFix"/>
<feColorMatrix in="SourceAlpha" type="matrix" values="0 0 0 0 0 0 0 0 0 0 0 0 0 0 0 0 0 0 127 0" result="hardAlpha"/>
<feOffset dy="3"/>
<feGaussianBlur stdDeviation="6.5"/>
<feComposite in2="hardAlpha" operator="out"/>
<feColorMatrix type="matrix" values="0 0 0 0 0 0 0 0 0 0 0 0 0 0 0 0 0 0 0.05 0"/>
<feBlend mode="normal" in2="BackgroundImageFix" result="effect1_dropShadow_315_196"/>
<feBlend mode="normal" in="SourceGraphic" in2="effect1_dropShadow_315_196" result="shape"/>
</filter>
</defs>
</svg>
