<svg width="512" height="420" viewBox="0 0 512 420" fill="none" xmlns="http://www.w3.org/2000/svg">
<path d="M429.787 360.861L40.6132 419.813C31.8626 421.195 24.033 414.747 23.3422 405.996L0.0838965 55.51C-0.606944 45.8383 7.45288 37.7785 17.1246 38.4693L406.989 63.3396C414.358 63.8002 420.345 69.5571 421.036 76.9261L443.373 343.821C444.064 351.881 438.077 359.48 429.787 360.861Z" fill="#63737A"/>
<path d="M440.379 360.401L49.3638 419.583C40.6132 420.965 32.7837 414.517 32.0928 405.766L8.60427 53.6678C7.91343 43.996 15.9732 35.7059 25.8753 36.3967L417.351 61.267C424.72 61.7275 430.708 67.4845 431.399 75.0838L453.966 343.13C454.887 351.65 448.9 359.249 440.379 360.401Z" fill="#ECECEC"/>
<path d="M185.459 239.734L75.3856 245.721C71.9314 245.951 68.9378 243.188 68.7075 239.734L62.2596 146.701C62.0293 143.016 65.023 139.792 68.7075 139.792L178.781 140.483C182.236 140.483 184.999 143.016 185.229 146.47L191.677 232.825C191.907 236.51 189.144 239.504 185.459 239.734Z" fill="#6DAFA7"/>
<path d="M303.823 203.81L211.711 207.034C208.257 207.264 205.263 204.501 205.033 201.047L201.118 147.392C200.888 143.707 203.882 140.483 207.566 140.483L299.678 141.174C302.902 141.174 305.666 143.707 306.126 147.161L310.041 196.902C310.271 200.586 307.508 203.81 303.823 203.81Z" fill="#FFE779"/>
<path d="M408.14 200.356L330.536 203.12C327.082 203.35 324.088 200.586 323.858 197.132L319.943 148.543C319.713 144.859 322.706 141.635 326.391 141.635L403.995 142.095C407.219 142.095 409.983 144.628 410.443 148.083L414.128 193.448C414.588 196.902 411.825 200.126 408.14 200.356Z" fill="#F4C2C9"/>
<path d="M192.368 330.004L82.2939 341.978C78.6094 342.439 75.3855 339.676 75.1552 335.991L71.0102 275.888C70.7799 272.434 73.5432 269.21 76.9974 268.98L187.302 261.611C190.756 261.38 193.98 263.914 194.21 267.598L198.355 323.096C198.355 326.55 195.822 329.543 192.368 330.004Z" stroke="#63737A" stroke-width="1.8" stroke-miterlimit="10" stroke-linecap="round" stroke-linejoin="round"/>
<path d="M314.186 327.701L222.304 338.524C218.62 338.984 215.396 336.221 215.166 332.536L207.797 233.286C207.566 229.601 210.33 226.608 213.784 226.377L305.896 222.002C309.35 221.772 312.344 224.535 312.574 227.989L319.943 320.792C320.173 324.246 317.64 327.24 314.186 327.701Z" fill="#F4C2C9"/>
<path d="M295.073 239.273L228.982 243.188C227.37 243.188 226.219 244.57 226.449 246.182L229.443 287.171C229.673 288.783 230.825 289.935 232.437 289.705L298.527 283.948C300.139 283.717 301.29 282.566 301.06 280.954L298.066 241.806C297.836 240.425 296.455 239.273 295.073 239.273Z" fill="#6DAFA7"/>
<path d="M417.352 304.903L339.747 313.423C336.063 313.884 332.839 311.121 332.608 307.436L326.391 227.529C326.161 223.844 328.924 220.851 332.378 220.621L409.983 216.936C413.437 216.706 416.43 219.469 416.661 222.923L422.878 297.995C423.339 301.449 420.806 304.443 417.352 304.903Z" fill="#FFE779"/>
<path d="M136.18 292.008L137.561 309.048" stroke="#63737A" stroke-width="1.8" stroke-miterlimit="10" stroke-linecap="round" stroke-linejoin="round"/>
<path d="M128.811 301.219L144.93 299.837" stroke="#63737A" stroke-width="1.8" stroke-miterlimit="10" stroke-linecap="round" stroke-linejoin="round"/>
<path d="M246.484 310.89C246.023 306.285 242.569 302.6 238.424 303.061C234.279 303.521 231.055 307.667 231.515 312.502C231.976 317.338 235.66 320.792 239.806 320.332C243.72 319.641 246.714 315.496 246.484 310.89Z" fill="#ECECEC"/>
<path d="M259.84 309.509L302.902 305.134" stroke="#ECECEC" stroke-width="1.8" stroke-miterlimit="10" stroke-linecap="round" stroke-linejoin="round"/>
<path d="M355.636 242.267C355.176 237.891 352.182 234.667 348.498 234.667C344.813 234.898 342.28 238.582 342.51 242.958C342.971 247.333 345.965 250.787 349.649 250.557C353.564 250.327 356.097 246.642 355.636 242.267Z" fill="#6DAFA7"/>
<path d="M367.381 241.576L404.456 239.273" stroke="#ECECEC" stroke-width="1.8" stroke-miterlimit="10" stroke-linecap="round" stroke-linejoin="round"/>
<path d="M357.709 266.907C357.248 262.531 354.255 259.307 350.57 259.538C346.886 259.768 344.353 263.683 344.583 268.058C345.044 272.433 348.268 275.888 351.722 275.427C355.406 274.966 358.17 271.282 357.709 266.907Z" fill="#6DAFA7"/>
<path d="M369.223 265.986L406.528 262.992" stroke="#ECECEC" stroke-width="1.8" stroke-miterlimit="10" stroke-linecap="round" stroke-linejoin="round"/>
<path d="M359.781 291.547C359.321 287.172 356.327 283.948 352.643 284.178C348.958 284.409 346.425 288.323 346.656 292.699C347.116 297.074 350.34 300.298 353.794 300.068C357.479 299.607 360.012 295.923 359.781 291.547Z" fill="#6DAFA7"/>
<path d="M371.295 290.396L408.371 286.711" stroke="#ECECEC" stroke-width="1.8" stroke-miterlimit="10" stroke-linecap="round" stroke-linejoin="round"/>
<path d="M100.716 177.098L85.7481 177.329C84.3665 177.329 83.215 176.177 82.9847 174.795L81.8333 159.136C81.8333 157.524 82.9848 156.373 84.5967 156.373H99.5649C100.947 156.373 102.098 157.524 102.328 158.906L103.48 174.335C103.249 175.717 102.098 177.098 100.716 177.098Z" fill="#FFE779"/>
<path d="M116.836 156.373L168.649 156.142" stroke="#ECECEC" stroke-width="1.8" stroke-miterlimit="10" stroke-linecap="round" stroke-linejoin="round"/>
<path d="M117.757 169.729L169.57 169.268" stroke="#ECECEC" stroke-width="1.8" stroke-miterlimit="10" stroke-linecap="round" stroke-linejoin="round"/>
<path d="M349.189 173.414L337.444 173.644C336.754 173.644 336.063 172.953 335.832 172.262L334.681 157.294C334.681 156.373 335.372 155.682 336.293 155.682H348.037C348.728 155.682 349.419 156.373 349.649 157.064L350.801 171.802C350.801 172.493 350.11 173.414 349.189 173.414Z" fill="#ECECEC"/>
<path d="M360.242 155.452H398.699" stroke="#ECECEC" stroke-width="1.8" stroke-miterlimit="10" stroke-linecap="round" stroke-linejoin="round"/>
<path d="M361.393 167.195L399.62 166.735" stroke="#ECECEC" stroke-width="1.8" stroke-miterlimit="10" stroke-linecap="round" stroke-linejoin="round"/>
<path d="M336.984 186.309L401.002 184.697" stroke="#ECECEC" stroke-width="1.8" stroke-miterlimit="10" stroke-linecap="round" stroke-linejoin="round"/>
<path d="M103.25 212.791L88.2813 213.251C86.8996 213.251 85.5179 212.1 85.5179 210.718L84.3665 195.059C84.3665 193.447 85.5179 192.296 86.8996 192.296L101.868 191.835C103.249 191.835 104.401 192.987 104.631 194.369L105.783 209.797C105.783 211.409 104.631 212.791 103.25 212.791Z" fill="#FFE779"/>
<path d="M119.369 191.605L171.182 190.223" stroke="#ECECEC" stroke-width="1.8" stroke-miterlimit="10" stroke-linecap="round" stroke-linejoin="round"/>
<path d="M120.29 205.192L172.103 203.58" stroke="#ECECEC" stroke-width="1.8" stroke-miterlimit="10" stroke-linecap="round" stroke-linejoin="round"/>
<path d="M141.015 101.335L63.411 99.0326C60.8779 99.0326 58.8054 96.9601 58.5751 94.427L57.654 82.2221C57.4237 79.2285 59.9568 76.6954 62.7202 76.9257L140.325 80.1496C142.858 80.1496 144.93 82.2222 145.16 84.7552L146.082 96.039C146.312 98.8023 144.009 101.335 141.015 101.335Z" fill="#6DAFA7"/>
<path d="M219.541 155.912L292.77 155.681" stroke="#ECECEC" stroke-width="1.8" stroke-miterlimit="10" stroke-linecap="round" stroke-linejoin="round"/>
<path d="M220.462 168.807L293.691 167.886" stroke="#ECECEC" stroke-width="1.8" stroke-miterlimit="10" stroke-linecap="round" stroke-linejoin="round"/>
<path d="M221.844 189.072L261.222 188.151" stroke="#ECECEC" stroke-width="1.8" stroke-miterlimit="10" stroke-linecap="round" stroke-linejoin="round"/>
<path d="M405.838 100.184C405.607 96.7298 403.074 93.7362 400.081 93.5059C397.317 93.2756 395.014 96.2693 395.475 99.7235C395.705 103.408 398.238 106.402 401.232 106.402C403.995 106.632 406.068 103.638 405.838 100.184Z" fill="#63737A"/>
<path d="M385.343 99.4938C385.112 95.8093 382.349 92.8157 379.586 92.8157C376.592 92.5854 374.519 95.579 374.75 99.2635C374.98 102.948 377.743 105.942 380.737 105.942C383.5 105.942 385.573 102.948 385.343 99.4938Z" fill="#63737A"/>
<path d="M364.157 98.5725C363.927 94.888 361.163 91.8943 358.17 91.6641C355.176 91.4338 352.873 94.4274 353.103 98.1119C353.334 101.796 356.097 104.79 359.091 105.02C362.315 105.251 364.387 102.257 364.157 98.5725Z" fill="#63737A"/>
<path d="M499.331 130.351L397.087 128.509C392.942 128.509 389.488 125.285 389.257 121.14L380.046 8.53308C379.816 4.61832 383.04 1.62469 386.724 1.85497L489.429 12.6781C493.344 13.1387 496.338 16.1323 496.568 20.0471L505.549 123.443C505.779 127.358 503.016 130.351 499.331 130.351Z" fill="#F8AB5D"/>
<path d="M504.858 128.509L402.614 126.667C398.469 126.667 395.014 123.443 394.784 119.298L385.573 6.69055C385.343 2.77579 388.567 -0.217837 392.251 0.0124435L494.956 10.8356C498.871 11.2962 501.864 14.2898 502.095 18.2046L511.076 121.6C511.306 125.515 508.312 128.509 504.858 128.509Z" fill="#FFE779"/>
<path d="M430.247 20.9683L484.363 26.0345" stroke="#63737A" stroke-width="1.8" stroke-miterlimit="10" stroke-linecap="round" stroke-linejoin="round"/>
<path d="M431.168 32.0217L485.284 36.6273" stroke="#63737A" stroke-width="1.8" stroke-miterlimit="10" stroke-linecap="round" stroke-linejoin="round"/>
<path d="M433.241 57.3523L487.587 61.0368" stroke="#63737A" stroke-width="1.8" stroke-miterlimit="10" stroke-linecap="round" stroke-linejoin="round"/>
<path d="M434.162 68.1755L488.278 71.3995" stroke="#63737A" stroke-width="1.8" stroke-miterlimit="10" stroke-linecap="round" stroke-linejoin="round"/>
<path d="M436.465 93.7368L490.581 96.0396" stroke="#63737A" stroke-width="1.8" stroke-miterlimit="10" stroke-linecap="round" stroke-linejoin="round"/>
<path d="M437.386 104.56L491.502 106.402" stroke="#63737A" stroke-width="1.8" stroke-miterlimit="10" stroke-linecap="round" stroke-linejoin="round"/>
<path d="M411.595 27.1855L414.358 30.6397L418.273 25.3433" stroke="#6DAFA7" stroke-width="1.8" stroke-miterlimit="10" stroke-linecap="round" stroke-linejoin="round"/>
<path d="M414.588 64.0301L417.351 67.254L421.496 61.9575" stroke="#6DAFA7" stroke-width="1.8" stroke-miterlimit="10" stroke-linecap="round" stroke-linejoin="round"/>
<path d="M417.582 100.184L420.576 103.408L424.49 97.8813" stroke="#6DAFA7" stroke-width="1.8" stroke-miterlimit="10" stroke-linecap="round" stroke-linejoin="round"/>
</svg>
