<svg width="439" height="387" viewBox="0 0 439 387" fill="none" xmlns="http://www.w3.org/2000/svg">
<path d="M371.722 386.482L25.8855 367.136C17.0485 366.658 10.5998 359.015 11.3163 350.178L40.9322 48.049C41.8876 38.0178 50.0079 30.375 59.8003 29.4197L422.356 1.71454C432.148 0.998026 440.268 9.35734 438.835 19.1497L393.456 368.569C392.023 379.078 382.709 386.959 371.722 386.482Z" fill="#63737A"/>
<path d="M362.169 386.482L14.6601 367.136C5.82314 366.658 -0.864398 359.015 0.0909515 350.179L29.7068 46.6162C30.6622 36.585 38.7827 28.7034 48.8138 27.9869L413.041 0.0429072C422.833 -0.673605 430.954 7.68571 429.76 17.478L384.142 368.569C382.47 379.078 372.916 386.96 362.169 386.482Z" fill="#ECECEC"/>
<path d="M355.72 236.731L350.704 276.139L301.504 275.184L306.042 236.492L355.72 236.731Z" fill="white"/>
<path d="M256.841 236.253L252.303 274.228L202.147 273.512L206.208 236.253H256.841Z" fill="#F4C2C9"/>
<path d="M301.504 275.184L296.727 313.637L247.765 311.965L252.303 274.229L301.504 275.184Z" fill="#B8D8C7"/>
<path d="M103.985 65.4846L63.1441 67.873C61.7111 67.873 60.5169 66.6788 60.5169 65.2458L61.2334 58.3195C61.4723 56.4088 63.1441 54.7369 65.0548 54.4981L106.135 51.8708C107.568 51.8708 109.001 53.0651 108.762 54.4981L108.045 61.6632C107.568 63.8127 106.135 65.2457 103.985 65.4846Z" fill="#63737A"/>
<path d="M129.78 147.884L57.6509 150.033C54.7848 150.033 52.3964 147.645 52.6352 144.54L56.4567 106.804C56.6955 103.46 59.5615 101.072 62.6664 100.833L135.273 97.2502C138.378 97.0114 140.766 99.6386 140.289 102.743L135.99 141.913C135.99 145.018 133.124 147.645 129.78 147.884Z" fill="#B8D8C7"/>
<path d="M241.078 144.54L162.023 146.928C159.157 146.928 156.768 144.54 157.007 141.435L161.306 101.549C161.545 98.2054 164.411 95.8171 167.516 95.5782L247.288 91.7568C250.393 91.518 252.781 94.1452 252.303 97.2501L247.527 138.569C247.049 141.913 244.422 144.301 241.078 144.54Z" fill="#FFE779"/>
<path d="M362.169 140.957L274.993 143.585C271.888 143.585 269.738 141.196 269.977 138.091L274.993 96.0559C275.471 92.7121 278.098 90.3238 281.203 90.0849L368.856 85.7859C371.961 85.547 374.349 88.1742 373.872 91.2791L368.378 134.986C368.139 138.33 365.273 140.718 362.169 140.957Z" fill="#F4C2C9"/>
<path d="M148.17 346.596L329.209 354.717C335.658 354.956 341.39 350.179 342.345 343.73L362.407 185.62C363.363 177.977 357.392 171.29 349.749 171.528L164.65 175.111C158.201 175.35 152.947 180.127 152.23 186.336L136.228 332.744C135.273 339.67 140.766 346.119 148.17 346.596Z" stroke="#63737A" stroke-width="1.8" stroke-miterlimit="10" stroke-linecap="round" stroke-linejoin="round"/>
<path d="M150.559 199.234L360.735 197.084" stroke="#63737A" stroke-width="1.8" stroke-miterlimit="10" stroke-linecap="round" stroke-linejoin="round"/>
<path d="M210.507 200.189L193.549 348.507" stroke="#63737A" stroke-width="1.8" stroke-miterlimit="10" stroke-linecap="round" stroke-linejoin="round"/>
<path d="M261.14 199.711L243.228 350.896" stroke="#63737A" stroke-width="1.8" stroke-miterlimit="10" stroke-linecap="round" stroke-linejoin="round"/>
<path d="M310.58 199.473L291.95 353.045" stroke="#63737A" stroke-width="1.8" stroke-miterlimit="10" stroke-linecap="round" stroke-linejoin="round"/>
<path d="M206.447 236.253L355.72 236.731" stroke="#63737A" stroke-width="1.8" stroke-miterlimit="10" stroke-linecap="round" stroke-linejoin="round"/>
<path d="M202.148 273.512L350.704 276.139" stroke="#63737A" stroke-width="1.8" stroke-miterlimit="10" stroke-linecap="round" stroke-linejoin="round"/>
<path d="M197.848 310.532L345.689 315.07" stroke="#63737A" stroke-width="1.8" stroke-miterlimit="10" stroke-linecap="round" stroke-linejoin="round"/>
<path d="M363.602 42.0785C363.124 45.4222 360.497 48.2883 357.87 48.5272C355.003 48.766 353.093 46.1388 353.57 42.795C354.048 39.4513 356.675 36.5853 359.302 36.3464C362.169 36.3464 364.079 38.7348 363.602 42.0785Z" fill="#63737A"/>
<path d="M340.195 43.7506C339.718 47.0943 337.329 49.9604 334.463 49.9604C331.597 50.1992 329.687 47.572 330.164 44.2283C330.642 40.8846 333.03 38.0185 335.896 38.0185C338.762 37.7797 340.673 40.4069 340.195 43.7506Z" fill="#63737A"/>
<path d="M317.267 45.1836C316.79 48.5273 314.401 51.1545 311.535 51.3933C308.908 51.6322 306.997 49.005 307.236 45.9001C307.714 42.5564 310.102 39.9291 312.968 39.6903C315.834 39.2126 317.506 41.8398 317.267 45.1836Z" fill="#63737A"/>
</svg>
