<svg width="560" height="507" viewBox="0 0 560 507" fill="none" xmlns="http://www.w3.org/2000/svg">
<path d="M65.4837 55.4273L544.368 5.88746C553.237 4.97006 560.576 12.3093 559.964 21.1775L518.987 487.219C518.07 498.839 507.978 507.401 496.664 506.79L31.5398 481.714C23.5889 481.408 17.7787 474.375 18.0845 466.73L46.2183 75.6102C47.1357 64.9071 55.0865 56.6505 65.4837 55.4273Z" fill="#707E85"/>
<path d="M48.053 50.229L532.442 0.077589C541.311 -0.839815 548.956 6.49939 548.038 15.6734L506.755 486.913C505.838 498.534 495.746 507.402 484.126 506.485L13.4975 481.103C5.54667 480.797 -0.569432 473.764 0.042171 465.813L28.4817 70.1061C29.7049 59.7088 37.6558 51.4522 48.053 50.229Z" fill="#EBEBEB"/>
<path d="M98.2041 151.755L76.1864 152.978L73.4341 193.955L95.1461 193.344L98.2041 151.755Z" fill="#6DAFA7"/>
<path d="M73.434 193.956L71.905 214.139L93.617 213.527L95.146 193.344L73.434 193.956Z" fill="#B8D8C7"/>
<path d="M145.603 96.0989L123.585 97.6279L119.916 150.532L141.628 149.614L145.603 96.0989Z" fill="#6DAFA7"/>
<path d="M119.916 150.532L115.329 212.915L137.04 212.304L141.627 149.614L119.916 150.532Z" fill="#B8D8C7"/>
<path d="M165.786 115.364L163.339 148.391L185.051 147.168L187.498 113.835L165.786 115.364Z" fill="#6DAFA7"/>
<path d="M163.339 148.391L158.752 211.997L180.464 211.386L185.051 147.167L163.339 148.391Z" fill="#B8D8C7"/>
<path d="M228.476 144.721L206.764 145.944L205.235 169.185L226.947 167.962L228.476 144.721Z" fill="#6DAFA7"/>
<path d="M205.235 169.185L202.177 210.774L223.889 210.163L226.947 167.962L205.235 169.185Z" fill="#B8D8C7"/>
<path d="M274.652 107.719L271.899 142.581L270.37 165.516L248.658 166.739L250.187 143.498L252.94 109.248L274.652 107.719Z" fill="#6DAFA7"/>
<path d="M248.658 166.739L245.294 209.551L267.006 209.245L270.37 165.516L248.658 166.739Z" fill="#B8D8C7"/>
<path d="M449.264 82.644L410.427 144.11L376.483 97.934C389.939 86.9252 406.146 79.8917 422.965 78.6685C432.751 78.0569 441.619 79.586 449.264 82.644Z" fill="#22272E"/>
<path d="M479.539 139.217L410.428 144.11L449.265 82.644C470.671 91.2065 483.208 112.613 479.539 139.217Z" fill="#F4C2C9"/>
<path d="M479.538 139.217C479.538 140.135 479.233 141.052 479.233 141.969C472.811 178.36 438.867 208.634 403.088 211.386L410.427 144.11L479.538 139.217Z" fill="#B8D8C7"/>
<path d="M410.427 144.11L403.088 211.386C401.253 211.692 399.113 211.692 397.278 211.692C360.888 211.692 338.564 182.029 346.209 146.25C350.185 127.596 361.499 110.472 376.484 98.2395L410.427 144.11Z" fill="white"/>
<path d="M469.753 263.678L453.851 418.719L54.1692 411.38L54.7808 399.454L141.323 339.823C145.298 337.071 150.497 337.071 154.472 340.129L186.887 363.981C191.78 367.651 199.119 366.733 202.789 361.535L234.898 318.722C239.485 312.606 248.659 312.606 253.246 319.028L281.685 358.477C285.355 363.675 292.694 364.898 297.893 360.923C301.868 357.865 307.373 357.865 311.348 360.617L331.531 374.99C336.73 378.66 344.069 377.436 347.738 371.932L392.997 302.209C396.667 296.705 404.006 295.482 409.204 299.151L422.354 308.631C427.553 312.301 434.586 311.383 438.255 306.185L469.753 263.678Z" fill="#6DAFA7"/>
<path d="M178.936 312.912H161.505C160.588 312.912 159.976 313.218 159.365 313.83L155.389 317.805C154.166 319.028 152.026 319.028 151.108 317.805L148.05 313.83C147.439 313.218 146.827 312.912 145.91 312.912H129.09C127.561 312.912 126.338 311.689 126.644 310.16L129.09 277.134C129.09 275.605 130.619 274.076 132.148 274.076L181.994 272.241C183.523 272.241 184.746 273.464 184.746 274.993L181.994 309.548C181.994 311.383 180.771 312.912 178.936 312.912Z" fill="white"/>
<path d="M342.234 329.426L324.803 329.12C323.886 329.12 323.274 329.426 322.662 330.037L318.687 334.013C317.464 335.236 315.629 335.236 314.406 333.707L311.348 329.732C310.736 329.12 310.125 328.814 309.207 328.814L292.694 328.508C291.165 328.508 290.248 327.285 290.248 325.45L292.694 292.118C292.694 290.589 294.223 289.06 295.446 289.06L345.292 287.837C346.821 287.837 348.044 289.06 348.044 290.895L345.292 326.368C345.292 328.203 343.763 329.732 342.234 329.426Z" fill="#F4C2C9"/>
</svg>
