<svg width="479" height="393" viewBox="0 0 479 393" fill="none" xmlns="http://www.w3.org/2000/svg">
<path d="M452.024 329.508L76.5033 392.304C63.0022 394.502 50.129 385.083 48.2451 371.582L0.20604 28.0869C-1.67784 14.5858 9.62546 2.9685 23.1266 4.5384L394.252 48.4957C404.927 49.7516 413.404 57.6011 415.602 68.2765L463.327 313.495C464.583 321.031 459.56 328.252 452.024 329.508Z" fill="#7C888F"/>
<path d="M467.723 325.112L92.2024 387.909C78.7013 390.106 65.8281 380.687 63.9442 367.186L15.5912 23.6912C13.7073 10.19 25.0106 -1.42725 38.5118 0.14265L409.637 44.0999C420.312 45.3558 428.79 53.2054 430.987 63.8807L478.712 309.099C480.282 316.635 475.259 323.857 467.723 325.112Z" fill="#EAEAEA"/>
<path d="M227.842 307.844L135.218 318.519C128.31 319.461 122.03 314.437 121.088 307.844L87.1786 81.1497C86.2367 74.8701 91.2604 69.2185 97.8539 69.8464L190.478 76.754C196.444 77.068 201.154 81.4637 202.096 87.4293L236.633 296.54C237.261 301.878 233.18 307.216 227.842 307.844Z" fill="#22272E"/>
<path d="M235.378 303.762L142.753 314.437C135.846 315.379 129.566 310.356 128.624 303.762L94.7143 77.0679C93.7723 70.7883 98.796 65.1367 105.39 65.7646L198.014 72.6722C203.979 72.9862 208.689 77.3819 209.631 83.3476L244.169 292.459C244.797 297.796 241.029 303.134 235.378 303.762Z" fill="#6DAFA7"/>
<path d="M144.009 83.3474L158.452 84.2894" stroke="#22272E" stroke-width="1.8" stroke-miterlimit="10" stroke-linecap="round" stroke-linejoin="round"/>
<path d="M165.988 84.9172H166.93" stroke="#22272E" stroke-width="1.8" stroke-miterlimit="10" stroke-linecap="round" stroke-linejoin="round"/>
<path d="M97.5402 94.9646L212.457 100.93" stroke="#22272E" stroke-width="1.8" stroke-miterlimit="10" stroke-linecap="round" stroke-linejoin="round"/>
<path d="M126.112 286.179L241.029 275.504" stroke="#22272E" stroke-width="1.8" stroke-miterlimit="10" stroke-linecap="round" stroke-linejoin="round"/>
<path d="M360.028 111.606C361.598 120.397 357.516 127.305 350.923 126.991C344.015 126.677 337.107 119.141 335.538 110.35C333.968 101.244 338.049 94.3367 344.957 94.9647C351.551 95.2787 358.144 102.814 360.028 111.606Z" fill="#22272E"/>
<path d="M372.273 167.808H344.015C338.991 167.808 334.91 164.354 333.968 159.331L333.026 154.307C330.2 137.666 338.049 124.793 350.295 125.107C362.54 125.421 374.471 138.608 377.297 154.621L378.239 160.273C379.181 164.354 376.355 167.808 372.273 167.808Z" fill="#22272E"/>
<path d="M339.305 217.417C340.875 226.836 336.479 234.686 329.258 235.314C322.036 235.628 314.501 228.406 312.931 218.673C311.361 208.939 315.757 201.09 323.292 200.776C330.514 200.776 337.421 207.997 339.305 217.417Z" fill="#22272E"/>
<path d="M351.864 277.387L322.036 280.527C316.698 281.155 311.675 277.387 310.733 272.049L309.791 267.026C306.651 249.443 315.128 234.372 328.63 233.43C341.503 232.488 354.376 245.675 357.516 262.63L358.458 268.282C359.4 272.677 356.574 276.759 351.864 277.387Z" fill="#22272E"/>
<path d="M415.916 213.649C417.486 222.441 414.032 229.662 407.753 230.29C401.473 230.604 394.879 223.697 393.309 214.905C391.74 206.114 395.507 198.578 401.787 198.264C408.067 198.264 414.346 205.172 415.916 213.649Z" fill="#22272E"/>
<path d="M427.219 269.538L403.985 272.05C398.647 272.678 393.937 268.91 392.995 263.572L392.368 259.491C389.228 243.164 396.449 229.348 407.753 228.406C419.056 227.778 430.359 240.024 433.185 255.723L434.127 260.432C434.755 264.828 431.615 268.91 427.219 269.538Z" fill="#22272E"/>
<path d="M252.018 173.774L280.905 173.46" stroke="#22272E" stroke-width="1.8" stroke-linecap="round" stroke-linejoin="round"/>
<path d="M280.277 186.647L296.604 175.972C298.488 174.716 298.488 171.89 296.29 170.948L276.195 160.587C273.997 159.331 271.485 161.214 272.113 163.726L275.881 184.763C276.195 186.961 278.393 187.903 280.277 186.647Z" fill="#22272E"/>
</svg>
