<svg width="131" height="80" viewBox="0 0 131 80" fill="none" xmlns="http://www.w3.org/2000/svg">
<g clip-path="url(#clip0_1877_64)">
<path fill-rule="evenodd" clip-rule="evenodd" d="M130.191 52.771C131.183 49.8244 128.812 47 125.703 47H120.032C117.809 47 115.899 48.4935 114.963 50.5102C110.993 59.0663 102.326 65 92.273 65C78.4659 65 67.273 53.8071 67.273 40C67.273 26.1929 78.4659 15 92.273 15C102.011 15 110.448 20.5676 114.576 28.6933C115.548 30.6059 117.41 32 119.555 32H125.356C128.517 32 130.896 29.0859 129.8 26.1212C124.157 10.8709 109.485 0 92.273 0C75.9344 0 61.8837 9.79594 55.6739 23.835C55.5788 23.4095 55.4291 22.9949 55.2223 22.6011L46.1995 5.4258C44.326 1.85959 39.2202 1.85958 37.3467 5.4258L1.88706 72.9247C0.138007 76.2541 2.55258 80.25 6.31344 80.25H47.366C51.3234 80.25 53.7123 75.8708 51.5701 72.5434L48.673 68.0434C47.7526 66.6139 46.169 65.75 44.4689 65.75H30.5289C27.5626 65.75 25.6282 62.6345 26.9439 59.9759L38.6879 36.2444C40.1566 33.2766 44.3893 33.2766 45.858 36.2444L55.0157 54.7496C55.0481 54.8151 55.0928 54.87 55.1455 54.9132C61.0577 69.6183 75.453 80 92.273 80C109.899 80 124.862 68.5999 130.191 52.771Z" fill="url(#paint0_linear_1877_64)"/>
</g>
<defs>
<linearGradient id="paint0_linear_1877_64" x1="65.8631" y1="0" x2="65.8631" y2="80.25" gradientUnits="userSpaceOnUse">
<stop stop-color="#8A20A2"/>
<stop offset="1" stop-color="#F72B80"/>
</linearGradient>
<clipPath id="clip0_1877_64">
<rect width="131" height="80" fill="white"/>
</clipPath>
</defs>
</svg>
