<svg width="130" height="80" viewBox="0 0 130 80" fill="none" xmlns="http://www.w3.org/2000/svg">
<path fill-rule="evenodd" clip-rule="evenodd" d="M129.191 52.771C130.183 49.8244 127.812 47 124.703 47H119.032C116.809 47 114.899 48.4935 113.963 50.5102C109.993 59.0663 101.326 65 91.273 65C77.4659 65 66.273 53.8071 66.273 40C66.273 26.1929 77.4659 15 91.273 15C101.011 15 109.448 20.5676 113.576 28.6933C114.548 30.6059 116.41 32 118.555 32H124.356C127.517 32 129.896 29.0859 128.8 26.1212C123.157 10.8709 108.485 0 91.273 0C74.9344 0 60.8837 9.79595 54.6739 23.835C54.5788 23.4096 54.4291 22.9949 54.2223 22.6011L45.1995 5.4258C43.326 1.85959 38.2202 1.85958 36.3467 5.4258L0.887064 72.9247C-0.861993 76.2541 1.55258 80.25 5.31344 80.25H46.366C50.3234 80.25 52.7123 75.8708 50.5701 72.5434L47.673 68.0434C46.7526 66.6139 45.169 65.75 43.4689 65.75H29.5289C26.5626 65.75 24.6282 62.6345 25.9439 59.9759L37.6879 36.2444C39.1566 33.2766 43.3893 33.2765 44.858 36.2444L54.0157 54.7496C54.0481 54.8151 54.0928 54.87 54.1455 54.9132C60.0577 69.6183 74.453 80 91.273 80C108.899 80 123.862 68.5999 129.191 52.771Z" fill="white"/>
</svg>
