<svg width="16" height="16" viewBox="0 0 16 16" fill="none" xmlns="http://www.w3.org/2000/svg">
<g clip-path="url(#clip0_1989_35)">
<path d="M15.5747 5.72303L10.6561 4.9717L8.45141 0.275695C8.28675 -0.0749714 7.71141 -0.0749714 7.54675 0.275695L5.34275 4.9717L0.424079 5.72303C0.333264 5.73698 0.248049 5.77569 0.17779 5.83489C0.107531 5.8941 0.0549464 5.97153 0.0258086 6.05867C-0.00332931 6.14581 -0.00789322 6.23929 0.0126179 6.32885C0.0331291 6.41841 0.0779221 6.50059 0.142079 6.56636L3.71541 10.229L2.87075 15.407C2.85566 15.4996 2.86694 15.5946 2.90329 15.6811C2.93964 15.7676 2.99959 15.8421 3.07629 15.8962C3.153 15.9502 3.24336 15.9816 3.33704 15.9867C3.43073 15.9918 3.52396 15.9704 3.60608 15.925L7.99941 13.497L12.3927 15.9257C12.4749 15.9711 12.5681 15.9924 12.6618 15.9873C12.7555 15.9822 12.8458 15.9509 12.9225 15.8968C12.9992 15.8428 13.0592 15.7683 13.0955 15.6818C13.1319 15.5953 13.1432 15.5003 13.1281 15.4077L12.2834 10.2297L15.8567 6.56703C15.9211 6.50128 15.966 6.41905 15.9867 6.32939C16.0073 6.23973 16.0028 6.14612 15.9736 6.05887C15.9445 5.97161 15.8918 5.89409 15.8214 5.83484C15.7511 5.77558 15.6657 5.73689 15.5747 5.72303Z" fill="#FFC107"/>
</g>
<defs>
<clipPath id="clip0_1989_35">
<rect width="16" height="16" fill="white"/>
</clipPath>
</defs>
</svg>
